<svg width="456" height="90" viewBox="0 0 456 90" fill="none" xmlns="http://www.w3.org/2000/svg">
<path fill-rule="evenodd" clip-rule="evenodd" d="M142.99 37.35C142.99 43.39 140.03 48 134.66 50.31L134.11 50.53L143.7 67.5H135.29L126.83 52.04L126.52 52.06C126.221 52.0799 125.917 52.0822 125.621 52.0844C125.472 52.0855 125.324 52.0866 125.18 52.09H117.76V67.5H110V22.5H125.19C136.17 22.5 142.99 28.19 142.99 37.35ZM117.77 45.71H124.84C131.5 45.71 135.17 42.74 135.17 37.35C135.17 32 131.49 29.06 124.84 29.06H117.77V45.71Z" fill="white"/>
<path fill-rule="evenodd" clip-rule="evenodd" d="M280.46 50.31C285.83 48 288.79 43.39 288.79 37.35C288.79 28.19 281.97 22.5 270.99 22.5H255.8V67.5H263.56V52.09H270.98C271.124 52.0866 271.272 52.0855 271.421 52.0844C271.717 52.0822 272.021 52.0799 272.32 52.06L272.63 52.04L281.08 67.5H289.49L279.91 50.53L280.46 50.31ZM270.64 45.71H263.57V29.06H270.64C277.29 29.06 280.97 32 280.97 37.35C280.97 42.74 277.3 45.71 270.64 45.71Z" fill="white"/>
<path fill-rule="evenodd" clip-rule="evenodd" d="M311.45 34.86C301.89 34.86 294.97 41.71 294.97 51.15C294.97 60.78 302.21 67.5 312.59 67.5C318.12 67.5 322.56 65.71 325.42 62.32L321.43 57.72C320.29 58.88 319.01 59.75 317.58 60.32C316.14 60.9 314.54 61.18 312.77 61.18C307.61 61.18 303.7 58.49 302.58 54.17L302.42 53.54H327.45C327.5 53.02 327.57 52.01 327.57 51.33C327.57 41.63 320.94 34.86 311.45 34.86ZM302.36 48.59L302.49 47.99C303.42 43.64 306.93 40.83 311.46 40.83C316.05 40.83 319.56 43.64 320.39 48L320.5 48.59H302.36Z" fill="white"/>
<path d="M456 65.36C454.29 66.72 451.69 67.5 448.84 67.5C441.76 67.5 437.85 63.69 437.85 56.76V28H445.31V35.64H453.87V43.32H445.31V56.58C445.31 60.53 447.71 61.36 449.72 61.36C451.36 61.36 452.81 60.9 453.9 60.04L456 65.36Z" fill="white"/>
<path fill-rule="evenodd" clip-rule="evenodd" d="M373.68 51.15C373.68 41.71 380.8 34.86 390.64 34.86C400.49 34.86 407.66 41.71 407.66 51.15C407.66 60.62 400.5 67.5 390.64 67.5C380.8 67.5 373.68 60.62 373.68 51.15ZM381.2 51.15C381.2 57.02 385.08 61.12 390.64 61.12C396.31 61.12 400.13 57.11 400.14 51.15C400.14 45.19 396.31 41.19 390.64 41.19C385.07 41.19 381.2 45.29 381.2 51.15Z" fill="white"/>
<path d="M421.76 39.12C423.77 36.82 426.94 35.71 431.73 35.64V43.36L431.692 43.364C429.521 43.5901 421.24 44.4525 421.24 51.55V67.5H413.78V35.64H420.88V40.13L421.76 39.12Z" fill="white"/>
<path fill-rule="evenodd" clip-rule="evenodd" d="M188.25 38.27L189.1 39.07V23H196.56V67.5H189.4V63.06L188.55 63.89C186.13 66.25 182.77 67.5 178.82 67.5C169.32 67.5 162.7 60.78 162.7 51.15C162.7 41.56 169.32 34.86 178.82 34.86C182.64 34.86 185.9 36.04 188.25 38.27ZM170.23 51.15C170.23 57.02 174.14 61.12 179.73 61.12C185.32 61.12 189.22 57.02 189.23 51.15C189.23 45.29 185.32 41.19 179.73 41.19C174.13 41.19 170.23 45.29 170.23 51.15Z" fill="white"/>
<path d="M156.58 35.66H149.12V67.5H156.58V35.66Z" fill="white"/>
<path fill-rule="evenodd" clip-rule="evenodd" d="M202.69 51.15C202.69 41.71 209.61 34.86 219.17 34.86C228.66 34.86 235.29 41.63 235.29 51.33C235.29 51.9096 235.227 52.7599 235.186 53.3065L235.18 53.39L235.17 53.54H210.13L210.29 54.17C211.42 58.49 215.33 61.18 220.49 61.18C222.26 61.18 223.85 60.9 225.29 60.32C226.72 59.75 228 58.88 229.14 57.72L233.13 62.31C230.28 65.71 225.83 67.5 220.3 67.5C209.92 67.5 202.69 60.78 202.69 51.15ZM210.21 47.99L210.08 48.59H228.21L228.1 48C227.27 43.64 223.77 40.83 219.18 40.83C214.64 40.83 211.12 43.64 210.21 47.99Z" fill="white"/>
<path fill-rule="evenodd" clip-rule="evenodd" d="M351.37 34.86C347.42 34.86 344.05 36.11 341.64 38.47L340.79 39.3V35.64H333.69V76.5H341.15V63.29L341.99 64.08C344.38 66.32 347.62 67.5 351.37 67.5C360.9 67.5 367.55 60.78 367.55 51.15C367.55 41.56 360.9 34.86 351.37 34.86ZM350.53 61.12C344.94 61.12 341.03 57.02 341.03 51.15C341.03 45.29 344.93 41.19 350.53 41.19C356.08 41.19 359.97 45.29 359.97 51.15C359.97 57.02 356.09 61.12 350.53 61.12Z" fill="white"/>
<path d="M156.85 26.5C156.85 28.7091 155.059 30.5 152.85 30.5C150.641 30.5 148.85 28.7091 148.85 26.5C148.85 24.2909 150.641 22.5 152.85 22.5C155.059 22.5 156.85 24.2909 156.85 26.5Z" fill="white"/>
<path d="M45 90C69.8528 90 90 69.8528 90 45C90 20.1472 69.8528 0 45 0C20.1472 0 0 20.1472 0 45C0 69.8528 20.1472 90 45 90Z" fill="#0FBE95"/>
<path fill-rule="evenodd" clip-rule="evenodd" d="M49.41 49.37C49.41 42.06 55.33 36.14 62.64 36.14C69.95 36.14 75.87 42.07 75.87 49.37C75.87 56.68 69.95 62.6 62.64 62.6C55.33 62.6 49.41 56.68 49.41 49.37ZM69.72 49.38C69.72 45.47 66.54 42.3 62.64 42.3C58.74 42.3 55.56 45.47 55.56 49.38C55.56 53.29 58.74 56.46 62.64 56.46C66.55 56.46 69.72 53.29 69.72 49.38Z" fill="#136F72"/>
<path fill-rule="evenodd" clip-rule="evenodd" d="M14.13 49.77C14.13 42.46 20.05 36.54 27.36 36.54C34.66 36.54 40.59 42.47 40.59 49.77C40.59 57.08 34.67 63 27.36 63C20.05 63 14.13 57.08 14.13 49.77ZM34.44 49.78C34.44 45.87 31.26 42.7 27.36 42.7C23.46 42.7 20.28 45.87 20.28 49.78C20.28 53.69 23.45 56.86 27.36 56.86C31.27 56.86 34.44 53.69 34.44 49.78Z" fill="#136F72"/>
<path d="M28.44 51.32C27.03 51.32 25.76 50.35 25.44 48.92C25.07 47.26 26.11 45.62 27.77 45.24L41.13 42.23L45.06 32.53C45.41 31.67 46.12 31.02 47.01 30.74L58.77 27.13C60.4 26.63 62.12 27.54 62.61 29.17C63.11 30.79 62.2 32.52 60.57 33.01L50.21 36.2L46.23 46.03C45.85 46.97 45.04 47.65 44.05 47.88L29.12 51.24C28.89 51.29 28.66 51.32 28.44 51.32Z" fill="white"/>
</svg>
