<svg width="90" height="90" viewBox="0 0 90 90" fill="none" xmlns="http://www.w3.org/2000/svg">
<path d="M45 90C69.8528 90 90 69.8528 90 45C90 20.1472 69.8528 0 45 0C20.1472 0 0 20.1472 0 45C0 69.8528 20.1472 90 45 90Z" fill="#0FBE95"/>
<path fill-rule="evenodd" clip-rule="evenodd" d="M49.41 49.37C49.41 42.06 55.33 36.14 62.64 36.14C69.95 36.14 75.87 42.07 75.87 49.37C75.87 56.68 69.95 62.6 62.64 62.6C55.33 62.6 49.41 56.68 49.41 49.37ZM69.72 49.38C69.72 45.47 66.54 42.3 62.64 42.3C58.74 42.3 55.56 45.47 55.56 49.38C55.56 53.29 58.74 56.46 62.64 56.46C66.55 56.46 69.72 53.29 69.72 49.38Z" fill="#136F72"/>
<path fill-rule="evenodd" clip-rule="evenodd" d="M14.13 49.77C14.13 42.46 20.05 36.54 27.36 36.54C34.66 36.54 40.59 42.47 40.59 49.77C40.59 57.08 34.67 63 27.36 63C20.05 63 14.13 57.08 14.13 49.77ZM34.44 49.78C34.44 45.87 31.26 42.7 27.36 42.7C23.46 42.7 20.28 45.87 20.28 49.78C20.28 53.69 23.45 56.86 27.36 56.86C31.27 56.86 34.44 53.69 34.44 49.78Z" fill="#136F72"/>
<path d="M28.44 51.32C27.03 51.32 25.76 50.35 25.44 48.92C25.07 47.26 26.11 45.62 27.77 45.24L41.13 42.23L45.06 32.53C45.41 31.67 46.12 31.02 47.01 30.74L58.77 27.13C60.4 26.63 62.12 27.54 62.61 29.17C63.11 30.79 62.2 32.52 60.57 33.01L50.21 36.2L46.23 46.03C45.85 46.97 45.04 47.65 44.05 47.88L29.12 51.24C28.89 51.29 28.66 51.32 28.44 51.32Z" fill="white"/>
</svg>
